<svg xmlns="http://www.w3.org/2000/svg" xmlns:xlink="http://www.w3.org/1999/xlink" version="1.1" x="0px" y="0px" viewBox="0 0 100 125" enable-background="new 0 0 100 100" xml:space="preserve"><path d="M83.125,13.625h-66.25c-6.617,0-12,5.383-12,12v48.75c0,6.617,5.383,12,12,12h66.25c6.617,0,12-5.383,12-12v-48.75  C95.125,19.008,89.742,13.625,83.125,13.625z M16.875,82.375c-4.411,0-8-3.589-8-8V49.731l25.581-19.782l31.981,52.426H16.875z   M91.125,74.375c0,4.411-3.589,8-8,8H71.123L56.6,58.568l19.295-12.999l15.23,24.583V74.375z M91.125,62.557L78.2,41.696  c-0.286-0.462-0.749-0.787-1.28-0.901c-0.527-0.113-1.086-0.008-1.537,0.297l-20.867,14.06L36.707,25.958  c-0.296-0.485-0.785-0.821-1.345-0.925c-0.557-0.105-1.136,0.036-1.586,0.385L8.875,44.675v-19.05c0-4.411,3.589-8,8-8h66.25  c4.411,0,8,3.589,8,8V62.557z M59.709,23.916c-3.562,0-6.459,2.897-6.459,6.459c0,3.561,2.897,6.458,6.459,6.458  c3.561,0,6.458-2.897,6.458-6.458C66.167,26.813,63.27,23.916,59.709,23.916z M59.709,32.833c-1.355,0-2.459-1.103-2.459-2.458  s1.104-2.459,2.459-2.459s2.458,1.104,2.458,2.459S61.064,32.833,59.709,32.833z"/><text x="0" y="115" fill="#000000" font-size="5px" font-weight="bold" font-family="'Helvetica Neue', Helvetica, Arial-Unicode, Arial, Sans-serif">Created by myladkings</text><text x="0" y="120" fill="#000000" font-size="5px" font-weight="bold" font-family="'Helvetica Neue', Helvetica, Arial-Unicode, Arial, Sans-serif">from the Noun Project</text></svg>